<mxfile host="app.diagrams.net" modified="2024-04-02T18:03:12.908Z" agent="Mozilla/5.0 (Windows NT 10.0; Win64; x64) AppleWebKit/537.36 (KHTML, like Gecko) Chrome/120.0.0.0 YaBrowser/24.1.0.0 Safari/537.36" etag="esSA3gO8PkmYt-rBRn4Y" version="24.2.1" type="device">
  <diagram name="Page-1" id="ExHJP3IFYPTcQOAYiSjZ">
    <mxGraphModel dx="1179" dy="676" grid="1" gridSize="10" guides="1" tooltips="1" connect="1" arrows="1" fold="1" page="1" pageScale="1" pageWidth="827" pageHeight="1169" math="0" shadow="0">
      <root>
        <mxCell id="0" />
        <mxCell id="1" parent="0" />
        <mxCell id="11" value="Заказы" style="group;labelBackgroundColor=none;strokeWidth=1;strokeColor=default;" parent="1" vertex="1">
          <mxGeometry x="370" y="220" width="120" height="170" as="geometry" />
        </mxCell>
        <mxCell id="12" value="Блюда" style="group;labelBackgroundColor=none;strokeColor=default;" parent="1" vertex="1">
          <mxGeometry x="100" y="240" width="120" height="90" as="geometry" />
        </mxCell>
        <mxCell id="15" value="Состав блюда" style="group;labelBackgroundColor=none;strokeColor=default;" parent="1" vertex="1">
          <mxGeometry x="280" y="440" width="120" height="165" as="geometry" />
        </mxCell>
        <mxCell id="16" value="Напитки" style="group;labelBackgroundColor=none;strokeColor=default;" parent="1" vertex="1">
          <mxGeometry x="590" y="260" width="120" height="90" as="geometry" />
        </mxCell>
        <mxCell id="17" value="Официанты" style="group;labelBackgroundColor=none;strokeColor=default;" parent="1" vertex="1">
          <mxGeometry x="580" y="390" width="120" height="70" as="geometry" />
        </mxCell>
        <mxCell id="18" value="Поставщики" style="group;labelBackgroundColor=none;strokeColor=default;" parent="1" vertex="1">
          <mxGeometry x="550" y="510" width="120" height="90" as="geometry" />
        </mxCell>
        <mxCell id="19" value="Код заказа (PK)" style="text;html=1;strokeColor=default;fillColor=none;align=left;verticalAlign=middle;whiteSpace=wrap;rounded=0;labelBackgroundColor=none;" parent="1" vertex="1">
          <mxGeometry x="370" y="250" width="120" height="20" as="geometry" />
        </mxCell>
        <mxCell id="20" value="Номер заказа" style="text;html=1;strokeColor=default;fillColor=none;align=left;verticalAlign=middle;whiteSpace=wrap;rounded=0;labelBackgroundColor=none;" parent="1" vertex="1">
          <mxGeometry x="370" y="270" width="120" height="20" as="geometry" />
        </mxCell>
        <mxCell id="21" value="Дата заказа" style="text;html=1;strokeColor=default;fillColor=none;align=left;verticalAlign=middle;whiteSpace=wrap;rounded=0;labelBackgroundColor=none;" parent="1" vertex="1">
          <mxGeometry x="370" y="350" width="120" height="20" as="geometry" />
        </mxCell>
        <mxCell id="22" value="ФИО официанта" style="text;html=1;strokeColor=default;fillColor=none;align=left;verticalAlign=middle;whiteSpace=wrap;rounded=0;labelBackgroundColor=none;" parent="1" vertex="1">
          <mxGeometry x="370" y="330" width="120" height="20" as="geometry" />
        </mxCell>
        <mxCell id="23" value="Общая сумма" style="text;html=1;strokeColor=default;fillColor=none;align=left;verticalAlign=middle;whiteSpace=wrap;rounded=0;labelBackgroundColor=none;" parent="1" vertex="1">
          <mxGeometry x="370" y="370" width="120" height="20" as="geometry" />
        </mxCell>
        <mxCell id="24" value="Код блюда (PK)" style="text;html=1;strokeColor=default;fillColor=none;align=left;verticalAlign=middle;whiteSpace=wrap;rounded=0;labelBackgroundColor=none;" parent="1" vertex="1">
          <mxGeometry x="100" y="270" width="120" height="20" as="geometry" />
        </mxCell>
        <mxCell id="25" value="Название" style="text;html=1;strokeColor=default;fillColor=none;align=left;verticalAlign=middle;whiteSpace=wrap;rounded=0;labelBackgroundColor=none;" parent="1" vertex="1">
          <mxGeometry x="100" y="290" width="120" height="20" as="geometry" />
        </mxCell>
        <mxCell id="26" value="Цена" style="text;html=1;strokeColor=default;fillColor=none;align=left;verticalAlign=middle;whiteSpace=wrap;rounded=0;labelBackgroundColor=none;" parent="1" vertex="1">
          <mxGeometry x="100" y="310" width="120" height="20" as="geometry" />
        </mxCell>
        <mxCell id="28" value="Код состава (PK)" style="text;html=1;strokeColor=default;fillColor=none;align=left;verticalAlign=middle;whiteSpace=wrap;rounded=0;labelBackgroundColor=none;" parent="1" vertex="1">
          <mxGeometry x="280" y="465" width="120" height="20" as="geometry" />
        </mxCell>
        <mxCell id="29" value="Название блюда" style="text;html=1;strokeColor=default;fillColor=none;align=left;verticalAlign=middle;whiteSpace=wrap;rounded=0;labelBackgroundColor=none;" parent="1" vertex="1">
          <mxGeometry x="280" y="485" width="120" height="20" as="geometry" />
        </mxCell>
        <mxCell id="30" value="Ингредиент" style="text;html=1;strokeColor=default;fillColor=none;align=left;verticalAlign=middle;whiteSpace=wrap;rounded=0;labelBackgroundColor=none;" parent="1" vertex="1">
          <mxGeometry x="280" y="505" width="120" height="20" as="geometry" />
        </mxCell>
        <mxCell id="31" value="Кол-во ингредиентов в блюде" style="text;html=1;strokeColor=default;fillColor=none;align=left;verticalAlign=middle;whiteSpace=wrap;rounded=0;labelBackgroundColor=none;" parent="1" vertex="1">
          <mxGeometry x="280" y="545" width="120" height="30" as="geometry" />
        </mxCell>
        <mxCell id="32" value="Код напитка (PK)" style="text;html=1;strokeColor=default;fillColor=none;align=left;verticalAlign=middle;whiteSpace=wrap;rounded=0;labelBackgroundColor=none;" parent="1" vertex="1">
          <mxGeometry x="590" y="290" width="120" height="20" as="geometry" />
        </mxCell>
        <mxCell id="33" value="Название" style="text;html=1;strokeColor=default;fillColor=none;align=left;verticalAlign=middle;whiteSpace=wrap;rounded=0;labelBackgroundColor=none;" parent="1" vertex="1">
          <mxGeometry x="590" y="310" width="120" height="20" as="geometry" />
        </mxCell>
        <mxCell id="34" value="Цена" style="text;html=1;strokeColor=default;fillColor=none;align=left;verticalAlign=middle;whiteSpace=wrap;rounded=0;labelBackgroundColor=none;" parent="1" vertex="1">
          <mxGeometry x="590" y="330" width="120" height="20" as="geometry" />
        </mxCell>
        <mxCell id="35" value="Код официанта (PK)" style="text;html=1;strokeColor=default;fillColor=none;align=left;verticalAlign=middle;whiteSpace=wrap;rounded=0;labelBackgroundColor=none;" parent="1" vertex="1">
          <mxGeometry x="580" y="420" width="120" height="20" as="geometry" />
        </mxCell>
        <mxCell id="36" value="ФИО" style="text;html=1;strokeColor=default;fillColor=none;align=left;verticalAlign=middle;whiteSpace=wrap;rounded=0;labelBackgroundColor=none;" parent="1" vertex="1">
          <mxGeometry x="580" y="440" width="120" height="20" as="geometry" />
        </mxCell>
        <mxCell id="37" value="Код поставщика (PK)" style="text;html=1;strokeColor=default;fillColor=none;align=left;verticalAlign=middle;whiteSpace=wrap;rounded=0;labelBackgroundColor=none;" parent="1" vertex="1">
          <mxGeometry x="550" y="540" width="120" height="20" as="geometry" />
        </mxCell>
        <mxCell id="38" value="ФИО" style="text;html=1;strokeColor=default;fillColor=none;align=left;verticalAlign=middle;whiteSpace=wrap;rounded=0;labelBackgroundColor=none;" parent="1" vertex="1">
          <mxGeometry x="550" y="560" width="120" height="20" as="geometry" />
        </mxCell>
        <mxCell id="39" value="Телефон" style="text;html=1;strokeColor=default;fillColor=none;align=left;verticalAlign=middle;whiteSpace=wrap;rounded=0;labelBackgroundColor=none;" parent="1" vertex="1">
          <mxGeometry x="550" y="580" width="120" height="20" as="geometry" />
        </mxCell>
        <mxCell id="kk3haiFZNqDyMKPC8yNL-45" value="" style="edgeStyle=entityRelationEdgeStyle;fontSize=12;html=1;endArrow=ERoneToMany;rounded=0;exitX=1;exitY=0.5;exitDx=0;exitDy=0;entryX=0;entryY=0.5;entryDx=0;entryDy=0;" edge="1" parent="1" source="24" target="kk3haiFZNqDyMKPC8yNL-47">
          <mxGeometry width="100" height="100" relative="1" as="geometry">
            <mxPoint x="340" y="470" as="sourcePoint" />
            <mxPoint x="270" y="440" as="targetPoint" />
          </mxGeometry>
        </mxCell>
        <mxCell id="kk3haiFZNqDyMKPC8yNL-47" value="Код блюда" style="text;html=1;strokeColor=default;fillColor=none;align=left;verticalAlign=middle;whiteSpace=wrap;rounded=0;labelBackgroundColor=none;" vertex="1" parent="1">
          <mxGeometry x="370" y="290" width="120" height="20" as="geometry" />
        </mxCell>
        <mxCell id="kk3haiFZNqDyMKPC8yNL-49" value="Код напитка" style="text;html=1;strokeColor=default;fillColor=none;align=left;verticalAlign=middle;whiteSpace=wrap;rounded=0;labelBackgroundColor=none;" vertex="1" parent="1">
          <mxGeometry x="370" y="310" width="120" height="20" as="geometry" />
        </mxCell>
        <mxCell id="kk3haiFZNqDyMKPC8yNL-50" value="Код поставщика" style="text;html=1;strokeColor=default;fillColor=none;align=left;verticalAlign=middle;whiteSpace=wrap;rounded=0;labelBackgroundColor=none;" vertex="1" parent="1">
          <mxGeometry x="280" y="525" width="120" height="20" as="geometry" />
        </mxCell>
        <mxCell id="kk3haiFZNqDyMKPC8yNL-51" value="" style="edgeStyle=entityRelationEdgeStyle;fontSize=12;html=1;endArrow=ERoneToMany;rounded=0;exitX=0;exitY=0.5;exitDx=0;exitDy=0;entryX=1;entryY=0.5;entryDx=0;entryDy=0;" edge="1" parent="1" source="37" target="kk3haiFZNqDyMKPC8yNL-50">
          <mxGeometry width="100" height="100" relative="1" as="geometry">
            <mxPoint x="430" y="265" as="sourcePoint" />
            <mxPoint x="530" y="290" as="targetPoint" />
          </mxGeometry>
        </mxCell>
        <mxCell id="kk3haiFZNqDyMKPC8yNL-52" value="Кол-во ингредиентов на складе" style="text;html=1;strokeColor=default;fillColor=none;align=left;verticalAlign=middle;whiteSpace=wrap;rounded=0;labelBackgroundColor=none;" vertex="1" parent="1">
          <mxGeometry x="280" y="575" width="120" height="30" as="geometry" />
        </mxCell>
        <mxCell id="kk3haiFZNqDyMKPC8yNL-53" value="" style="edgeStyle=entityRelationEdgeStyle;fontSize=12;html=1;endArrow=ERoneToMany;rounded=0;entryX=0;entryY=0.5;entryDx=0;entryDy=0;" edge="1" parent="1" source="24" target="29">
          <mxGeometry width="100" height="100" relative="1" as="geometry">
            <mxPoint x="560" y="560" as="sourcePoint" />
            <mxPoint x="410" y="545" as="targetPoint" />
          </mxGeometry>
        </mxCell>
        <mxCell id="kk3haiFZNqDyMKPC8yNL-55" value="" style="edgeStyle=entityRelationEdgeStyle;fontSize=12;html=1;endArrow=ERoneToMany;rounded=0;exitX=0;exitY=0.5;exitDx=0;exitDy=0;entryX=1;entryY=0.5;entryDx=0;entryDy=0;" edge="1" parent="1" source="32" target="kk3haiFZNqDyMKPC8yNL-49">
          <mxGeometry width="100" height="100" relative="1" as="geometry">
            <mxPoint x="685" y="405" as="sourcePoint" />
            <mxPoint x="535" y="390" as="targetPoint" />
          </mxGeometry>
        </mxCell>
        <mxCell id="kk3haiFZNqDyMKPC8yNL-56" value="" style="edgeStyle=entityRelationEdgeStyle;fontSize=12;html=1;endArrow=ERoneToMany;rounded=0;exitX=0;exitY=0.5;exitDx=0;exitDy=0;entryX=1;entryY=0.5;entryDx=0;entryDy=0;" edge="1" parent="1" source="17" target="22">
          <mxGeometry width="100" height="100" relative="1" as="geometry">
            <mxPoint x="600" y="310" as="sourcePoint" />
            <mxPoint x="500" y="330" as="targetPoint" />
          </mxGeometry>
        </mxCell>
      </root>
    </mxGraphModel>
  </diagram>
</mxfile>
